<svg width="1440" height="44" viewBox="0 0 1440 44" fill="none" xmlns="http://www.w3.org/2000/svg">
<path opacity="0.71" d="M3.63636 17.2812C3.45739 16.6591 3.20597 16.1094 2.8821 15.6321C2.55824 15.1463 2.16193 14.7372 1.69318 14.4048C1.23296 14.0639 0.704546 13.804 0.107955 13.625C-0.480114 13.446 -1.1321 13.3565 -1.84801 13.3565C-3.18608 13.3565 -4.36222 13.6889 -5.37642 14.3537C-6.3821 15.0185 -7.16619 15.9858 -7.72869 17.2557C-8.29119 18.517 -8.57244 20.0597 -8.57244 21.8835C-8.57244 23.7074 -8.29545 25.2585 -7.74148 26.5369C-7.1875 27.8153 -6.40341 28.7912 -5.3892 29.4645C-4.375 30.1293 -3.17756 30.4616 -1.79688 30.4616C-0.544034 30.4616 0.525569 30.2401 1.41193 29.7969C2.30682 29.3452 2.98864 28.7102 3.45739 27.892C3.93466 27.0739 4.1733 26.1065 4.1733 24.9901L5.2983 25.1562H-1.4517V20.9886H9.50426V24.2869C9.50426 26.5881 9.01847 28.5653 8.04688 30.2188C7.07528 31.8636 5.73722 33.1335 4.03267 34.0284C2.32812 34.9148 0.376421 35.358 -1.82244 35.358C-4.27699 35.358 -6.43324 34.8168 -8.29119 33.7344C-10.1491 32.6435 -11.598 31.0966 -12.6378 29.0938C-13.669 27.0824 -14.1847 24.696 -14.1847 21.9347C-14.1847 19.8125 -13.8778 17.9205 -13.2642 16.2585C-12.642 14.5881 -11.7727 13.1733 -10.6562 12.0142C-9.53977 10.8551 -8.24006 9.97301 -6.7571 9.3679C-5.27415 8.76278 -3.66761 8.46023 -1.9375 8.46023C-0.454545 8.46023 0.926136 8.67756 2.20455 9.11222C3.48295 9.53835 4.61648 10.1435 5.60511 10.9276C6.60227 11.7116 7.41619 12.6449 8.04688 13.7273C8.67756 14.8011 9.08239 15.9858 9.26136 17.2812H3.63636ZM20.2722 35.3835C18.2864 35.3835 16.569 34.9616 15.1202 34.1179C13.6798 33.2656 12.5676 32.081 11.7835 30.5639C10.9994 29.0384 10.6074 27.2699 10.6074 25.2585C10.6074 23.2301 10.9994 21.4574 11.7835 19.9403C12.5676 18.4148 13.6798 17.2301 15.1202 16.3864C16.569 15.5341 18.2864 15.108 20.2722 15.108C22.258 15.108 23.971 15.5341 25.4114 16.3864C26.8602 17.2301 27.9767 18.4148 28.7608 19.9403C29.5449 21.4574 29.9369 23.2301 29.9369 25.2585C29.9369 27.2699 29.5449 29.0384 28.7608 30.5639C27.9767 32.081 26.8602 33.2656 25.4114 34.1179C23.971 34.9616 22.258 35.3835 20.2722 35.3835ZM20.2977 31.1648C21.2012 31.1648 21.9554 30.9091 22.5605 30.3977C23.1656 29.8778 23.6216 29.1705 23.9284 28.2756C24.2438 27.3807 24.4014 26.3622 24.4014 25.2202C24.4014 24.0781 24.2438 23.0597 23.9284 22.1648C23.6216 21.2699 23.1656 20.5625 22.5605 20.0426C21.9554 19.5227 21.2012 19.2628 20.2977 19.2628C19.3858 19.2628 18.6188 19.5227 17.9966 20.0426C17.383 20.5625 16.9185 21.2699 16.6031 22.1648C16.2963 23.0597 16.1429 24.0781 16.1429 25.2202C16.1429 26.3622 16.2963 27.3807 16.6031 28.2756C16.9185 29.1705 17.383 29.8778 17.9966 30.3977C18.6188 30.9091 19.3858 31.1648 20.2977 31.1648ZM40.1903 35.3835C38.2045 35.3835 36.4872 34.9616 35.0383 34.1179C33.598 33.2656 32.4858 32.081 31.7017 30.5639C30.9176 29.0384 30.5255 27.2699 30.5255 25.2585C30.5255 23.2301 30.9176 21.4574 31.7017 19.9403C32.4858 18.4148 33.598 17.2301 35.0383 16.3864C36.4872 15.5341 38.2045 15.108 40.1903 15.108C42.1761 15.108 43.8892 15.5341 45.3295 16.3864C46.7784 17.2301 47.8948 18.4148 48.6789 19.9403C49.463 21.4574 49.8551 23.2301 49.8551 25.2585C49.8551 27.2699 49.463 29.0384 48.6789 30.5639C47.8948 32.081 46.7784 33.2656 45.3295 34.1179C43.8892 34.9616 42.1761 35.3835 40.1903 35.3835ZM40.2159 31.1648C41.1193 31.1648 41.8735 30.9091 42.4787 30.3977C43.0838 29.8778 43.5397 29.1705 43.8465 28.2756C44.1619 27.3807 44.3196 26.3622 44.3196 25.2202C44.3196 24.0781 44.1619 23.0597 43.8465 22.1648C43.5397 21.2699 43.0838 20.5625 42.4787 20.0426C41.8735 19.5227 41.1193 19.2628 40.2159 19.2628C39.3039 19.2628 38.5369 19.5227 37.9147 20.0426C37.3011 20.5625 36.8366 21.2699 36.5213 22.1648C36.2144 23.0597 36.061 24.0781 36.061 25.2202C36.061 26.3622 36.2144 27.3807 36.5213 28.2756C36.8366 29.1705 37.3011 29.8778 37.9147 30.3977C38.5369 30.9091 39.3039 31.1648 40.2159 31.1648ZM60.0829 42.7727C58.3186 42.7727 56.8059 42.5298 55.5445 42.044C54.2917 41.5668 53.2945 40.9148 52.553 40.0881C51.8115 39.2614 51.33 38.3324 51.1084 37.3011L56.1454 36.6236C56.2988 37.0156 56.5417 37.3821 56.874 37.723C57.2064 38.0639 57.6454 38.3366 58.1908 38.5412C58.7448 38.7543 59.4181 38.8608 60.2107 38.8608C61.3954 38.8608 62.3712 38.571 63.1382 37.9915C63.9138 37.4205 64.3016 36.4616 64.3016 35.1151V31.5227H64.0715C63.8329 32.0682 63.4749 32.5838 62.9976 33.0696C62.5204 33.5554 61.9067 33.9517 61.1567 34.2585C60.4067 34.5653 59.5118 34.7188 58.4721 34.7188C56.9976 34.7188 55.6553 34.3778 54.4451 33.696C53.2434 33.0057 52.2846 31.9531 51.5686 30.5384C50.8613 29.1151 50.5076 27.3168 50.5076 25.1435C50.5076 22.919 50.8698 21.0611 51.5942 19.5696C52.3186 18.0781 53.2817 16.9616 54.4834 16.2202C55.6936 15.4787 57.0189 15.108 58.4593 15.108C59.5587 15.108 60.4792 15.2955 61.2206 15.6705C61.9621 16.0369 62.5587 16.4972 63.0104 17.0511C63.4706 17.5966 63.8243 18.1335 64.0715 18.6619H64.276V15.3636H69.6837V35.1918C69.6837 36.8622 69.2746 38.2599 68.4564 39.3849C67.6382 40.5099 66.5047 41.3537 65.0559 41.9162C63.6155 42.4872 61.9579 42.7727 60.0829 42.7727ZM60.1979 30.6278C61.0757 30.6278 61.8172 30.4105 62.4223 29.9759C63.036 29.5327 63.5047 28.902 63.8286 28.0838C64.161 27.2571 64.3272 26.2685 64.3272 25.1179C64.3272 23.9673 64.1652 22.9702 63.8414 22.1264C63.5175 21.2741 63.0488 20.6136 62.4351 20.1449C61.8215 19.6761 61.0757 19.4418 60.1979 19.4418C59.303 19.4418 58.5488 19.6847 57.9351 20.1705C57.3215 20.6477 56.857 21.3125 56.5417 22.1648C56.2263 23.017 56.0686 24.0014 56.0686 25.1179C56.0686 26.2514 56.2263 27.2315 56.5417 28.0582C56.8655 28.8764 57.33 29.5114 57.9351 29.9631C58.5488 30.4062 59.303 30.6278 60.1979 30.6278ZM77.3035 8.81818V35H71.8575V8.81818H77.3035ZM88.455 35.3835C86.4351 35.3835 84.6964 34.9744 83.2391 34.1562C81.7902 33.3295 80.6737 32.1619 79.8896 30.6534C79.1055 29.1364 78.7135 27.3423 78.7135 25.2713C78.7135 23.2514 79.1055 21.4787 79.8896 19.9531C80.6737 18.4276 81.7774 17.2386 83.2007 16.3864C84.6325 15.5341 86.3115 15.108 88.2376 15.108C89.5331 15.108 90.7391 15.3168 91.8555 15.7344C92.9805 16.1435 93.9607 16.7614 94.7959 17.5881C95.6396 18.4148 96.2959 19.4545 96.7646 20.7074C97.2334 21.9517 97.4678 23.4091 97.4678 25.0795V26.5753H80.8868V23.2003H92.3413C92.3413 22.4162 92.1709 21.7216 91.83 21.1165C91.4891 20.5114 91.016 20.0384 90.4109 19.6974C89.8143 19.348 89.1197 19.1733 88.3271 19.1733C87.5004 19.1733 86.7675 19.3651 86.1283 19.7486C85.4976 20.1236 85.0033 20.6307 84.6453 21.2699C84.2874 21.9006 84.1041 22.6037 84.0956 23.3793V26.5881C84.0956 27.5597 84.2746 28.3991 84.6325 29.1065C84.999 29.8139 85.5146 30.3594 86.1794 30.7429C86.8442 31.1264 87.6325 31.3182 88.5445 31.3182C89.1496 31.3182 89.7035 31.233 90.2064 31.0625C90.7092 30.892 91.1396 30.6364 91.4976 30.2955C91.8555 29.9545 92.1283 29.5369 92.3158 29.0426L97.3527 29.375C97.097 30.5852 96.5729 31.642 95.7803 32.5455C94.9962 33.4403 93.982 34.1392 92.7376 34.642C91.5018 35.1364 90.0743 35.3835 88.455 35.3835Z" fill="#2F2F2F"/>
<path opacity="0.71" d="M199.276 8.81818H206.102L213.312 26.4091H213.619L220.83 8.81818H227.656V35H222.287V17.9588H222.07L215.294 34.8722H211.638L204.862 17.8949H204.645V35H199.276V8.81818ZM229.955 35V15.3636H235.401V35H229.955ZM232.69 12.8324C231.881 12.8324 231.186 12.5639 230.607 12.027C230.036 11.4815 229.75 10.8295 229.75 10.071C229.75 9.32102 230.036 8.67756 230.607 8.14062C231.186 7.59517 231.881 7.32244 232.69 7.32244C233.5 7.32244 234.19 7.59517 234.762 8.14062C235.341 8.67756 235.631 9.32102 235.631 10.071C235.631 10.8295 235.341 11.4815 234.762 12.027C234.19 12.5639 233.5 12.8324 232.69 12.8324ZM246.475 35.3835C244.464 35.3835 242.734 34.9574 241.285 34.1051C239.845 33.2443 238.737 32.0511 237.961 30.5256C237.194 29 236.811 27.2443 236.811 25.2585C236.811 23.2472 237.198 21.483 237.974 19.9659C238.758 18.4403 239.87 17.2514 241.311 16.3991C242.751 15.5384 244.464 15.108 246.45 15.108C248.163 15.108 249.663 15.419 250.95 16.0412C252.237 16.6634 253.255 17.5369 254.005 18.6619C254.755 19.7869 255.169 21.108 255.245 22.625H250.106C249.961 21.6449 249.578 20.8565 248.956 20.2599C248.342 19.6548 247.537 19.3523 246.539 19.3523C245.696 19.3523 244.958 19.5824 244.328 20.0426C243.706 20.4943 243.22 21.1548 242.87 22.0241C242.521 22.8935 242.346 23.946 242.346 25.1818C242.346 26.4347 242.517 27.5 242.858 28.3778C243.207 29.2557 243.697 29.9247 244.328 30.3849C244.958 30.8452 245.696 31.0753 246.539 31.0753C247.162 31.0753 247.72 30.9474 248.214 30.6918C248.717 30.4361 249.13 30.0653 249.454 29.5795C249.787 29.0852 250.004 28.4929 250.106 27.8026H255.245C255.16 29.3026 254.751 30.6236 254.018 31.7656C253.294 32.8991 252.292 33.7855 251.014 34.4247C249.735 35.0639 248.223 35.3835 246.475 35.3835ZM256.572 35V15.3636H261.852V18.7898H262.057C262.415 17.571 263.015 16.6506 263.859 16.0284C264.703 15.3977 265.674 15.0824 266.774 15.0824C267.047 15.0824 267.341 15.0994 267.656 15.1335C267.971 15.1676 268.248 15.2145 268.487 15.2741V20.1065C268.231 20.0298 267.878 19.9616 267.426 19.902C266.974 19.8423 266.561 19.8125 266.186 19.8125C265.385 19.8125 264.669 19.9872 264.038 20.3366C263.416 20.6776 262.922 21.1548 262.555 21.7685C262.197 22.3821 262.018 23.0895 262.018 23.8906V35H256.572ZM277.101 35.3835C275.115 35.3835 273.398 34.9616 271.949 34.1179C270.508 33.2656 269.396 32.081 268.612 30.5639C267.828 29.0384 267.436 27.2699 267.436 25.2585C267.436 23.2301 267.828 21.4574 268.612 19.9403C269.396 18.4148 270.508 17.2301 271.949 16.3864C273.398 15.5341 275.115 15.108 277.101 15.108C279.087 15.108 280.8 15.5341 282.24 16.3864C283.689 17.2301 284.805 18.4148 285.589 19.9403C286.373 21.4574 286.766 23.2301 286.766 25.2585C286.766 27.2699 286.373 29.0384 285.589 30.5639C284.805 32.081 283.689 33.2656 282.24 34.1179C280.8 34.9616 279.087 35.3835 277.101 35.3835ZM277.126 31.1648C278.03 31.1648 278.784 30.9091 279.389 30.3977C279.994 29.8778 280.45 29.1705 280.757 28.2756C281.072 27.3807 281.23 26.3622 281.23 25.2202C281.23 24.0781 281.072 23.0597 280.757 22.1648C280.45 21.2699 279.994 20.5625 279.389 20.0426C278.784 19.5227 278.03 19.2628 277.126 19.2628C276.214 19.2628 275.447 19.5227 274.825 20.0426C274.212 20.5625 273.747 21.2699 273.432 22.1648C273.125 23.0597 272.972 24.0781 272.972 25.2202C272.972 26.3622 273.125 27.3807 273.432 28.2756C273.747 29.1705 274.212 29.8778 274.825 30.3977C275.447 30.9091 276.214 31.1648 277.126 31.1648ZM304.485 20.9631L299.499 21.2699C299.414 20.8437 299.231 20.4602 298.949 20.1193C298.668 19.7699 298.297 19.4929 297.837 19.2884C297.385 19.0753 296.844 18.9688 296.213 18.9688C295.37 18.9688 294.658 19.1477 294.079 19.5057C293.499 19.8551 293.209 20.3239 293.209 20.9119C293.209 21.3807 293.397 21.777 293.772 22.1009C294.147 22.4247 294.79 22.6847 295.702 22.8807L299.256 23.5966C301.165 23.9886 302.588 24.6193 303.526 25.4886C304.463 26.358 304.932 27.5 304.932 28.9148C304.932 30.2017 304.553 31.331 303.794 32.3026C303.044 33.2741 302.013 34.0327 300.701 34.5781C299.397 35.1151 297.892 35.3835 296.188 35.3835C293.588 35.3835 291.517 34.8423 289.975 33.7599C288.441 32.669 287.542 31.1861 287.277 29.3111L292.634 29.0298C292.796 29.8224 293.188 30.4276 293.81 30.8452C294.432 31.2543 295.229 31.4588 296.201 31.4588C297.155 31.4588 297.922 31.2756 298.502 30.9091C299.09 30.5341 299.388 30.0526 299.397 29.4645C299.388 28.9702 299.179 28.5653 298.77 28.25C298.361 27.9261 297.731 27.679 296.878 27.5085L293.478 26.831C291.56 26.4474 290.133 25.7827 289.195 24.8366C288.266 23.8906 287.802 22.6847 287.802 21.2188C287.802 19.9574 288.142 18.8707 288.824 17.9588C289.515 17.0469 290.482 16.3438 291.726 15.8494C292.979 15.3551 294.445 15.108 296.124 15.108C298.604 15.108 300.556 15.6321 301.979 16.6804C303.411 17.7287 304.246 19.1562 304.485 20.9631ZM315.074 35.3835C313.088 35.3835 311.371 34.9616 309.922 34.1179C308.481 33.2656 307.369 32.081 306.585 30.5639C305.801 29.0384 305.409 27.2699 305.409 25.2585C305.409 23.2301 305.801 21.4574 306.585 19.9403C307.369 18.4148 308.481 17.2301 309.922 16.3864C311.371 15.5341 313.088 15.108 315.074 15.108C317.06 15.108 318.773 15.5341 320.213 16.3864C321.662 17.2301 322.778 18.4148 323.562 19.9403C324.346 21.4574 324.739 23.2301 324.739 25.2585C324.739 27.2699 324.346 29.0384 323.562 30.5639C322.778 32.081 321.662 33.2656 320.213 34.1179C318.773 34.9616 317.06 35.3835 315.074 35.3835ZM315.099 31.1648C316.003 31.1648 316.757 30.9091 317.362 30.3977C317.967 29.8778 318.423 29.1705 318.73 28.2756C319.045 27.3807 319.203 26.3622 319.203 25.2202C319.203 24.0781 319.045 23.0597 318.73 22.1648C318.423 21.2699 317.967 20.5625 317.362 20.0426C316.757 19.5227 316.003 19.2628 315.099 19.2628C314.187 19.2628 313.42 19.5227 312.798 20.0426C312.185 20.5625 311.72 21.2699 311.405 22.1648C311.098 23.0597 310.944 24.0781 310.944 25.2202C310.944 26.3622 311.098 27.3807 311.405 28.2756C311.72 29.1705 312.185 29.8778 312.798 30.3977C313.42 30.9091 314.187 31.1648 315.099 31.1648ZM336.679 15.3636V19.4545H324.56V15.3636H336.679ZM327.334 35V13.9446C327.334 12.5213 327.611 11.3409 328.165 10.4034C328.728 9.46591 329.495 8.76278 330.466 8.29403C331.438 7.82528 332.542 7.59091 333.777 7.59091C334.613 7.59091 335.375 7.65483 336.066 7.78267C336.765 7.91051 337.284 8.02557 337.625 8.12784L336.654 12.2188C336.441 12.1506 336.177 12.0866 335.861 12.027C335.554 11.9673 335.239 11.9375 334.915 11.9375C334.114 11.9375 333.556 12.125 333.24 12.5C332.925 12.8665 332.767 13.3821 332.767 14.0469V35H327.334ZM348.291 15.3636V19.4545H336.466V15.3636H348.291ZM339.15 10.6591H344.596V28.9659C344.596 29.4687 344.673 29.8608 344.827 30.142C344.98 30.4148 345.193 30.6065 345.466 30.7173C345.747 30.8281 346.071 30.8835 346.437 30.8835C346.693 30.8835 346.949 30.8622 347.204 30.8196C347.46 30.7685 347.656 30.7301 347.792 30.7045L348.649 34.7571C348.376 34.8423 347.993 34.9403 347.498 35.0511C347.004 35.1705 346.403 35.2429 345.696 35.2685C344.383 35.3196 343.233 35.1449 342.244 34.7443C341.264 34.3437 340.501 33.7216 339.956 32.8778C339.41 32.0341 339.142 30.9687 339.15 29.6818V10.6591Z" fill="#2F2F2F"/>
<path opacity="0.71" d="M458.788 35H452.857L461.895 8.81818H469.028L478.054 35H472.122L465.564 14.8011H465.359L458.788 35ZM458.418 24.7088H472.429V29.0298H458.418V24.7088ZM479.048 35V15.3636H484.494V35H479.048ZM481.784 12.8324C480.975 12.8324 480.28 12.5639 479.7 12.027C479.129 11.4815 478.844 10.8295 478.844 10.071C478.844 9.32102 479.129 8.67756 479.7 8.14062C480.28 7.59517 480.975 7.32244 481.784 7.32244C482.594 7.32244 483.284 7.59517 483.855 8.14062C484.435 8.67756 484.725 9.32102 484.725 10.071C484.725 10.8295 484.435 11.4815 483.855 12.027C483.284 12.5639 482.594 12.8324 481.784 12.8324ZM486.697 35V15.3636H491.977V18.7898H492.181C492.539 17.571 493.14 16.6506 493.984 16.0284C494.828 15.3977 495.799 15.0824 496.899 15.0824C497.171 15.0824 497.466 15.0994 497.781 15.1335C498.096 15.1676 498.373 15.2145 498.612 15.2741V20.1065C498.356 20.0298 498.002 19.9616 497.551 19.902C497.099 19.8423 496.686 19.8125 496.311 19.8125C495.51 19.8125 494.794 19.9872 494.163 20.3366C493.541 20.6776 493.046 21.1548 492.68 21.7685C492.322 22.3821 492.143 23.0895 492.143 23.8906V35H486.697ZM499.37 35V8.81818H504.816V18.6619H504.982C505.221 18.1335 505.566 17.5966 506.018 17.0511C506.478 16.4972 507.074 16.0369 507.807 15.6705C508.549 15.2955 509.469 15.108 510.569 15.108C512 15.108 513.321 15.483 514.532 16.233C515.742 16.9744 516.709 18.0952 517.434 19.5952C518.158 21.0866 518.52 22.9574 518.52 25.2074C518.52 27.3977 518.167 29.2472 517.459 30.7557C516.76 32.2557 515.806 33.3935 514.596 34.169C513.394 34.9361 512.047 35.3196 510.556 35.3196C509.499 35.3196 508.6 35.1449 507.858 34.7955C507.125 34.446 506.525 34.0071 506.056 33.4787C505.587 32.9418 505.229 32.4006 504.982 31.8551H504.739V35H499.37ZM504.701 25.1818C504.701 26.3494 504.863 27.3679 505.187 28.2372C505.51 29.1065 505.979 29.7841 506.593 30.2699C507.206 30.7472 507.952 30.9858 508.83 30.9858C509.716 30.9858 510.466 30.7429 511.08 30.2571C511.694 29.7628 512.158 29.081 512.473 28.2116C512.797 27.3338 512.959 26.3239 512.959 25.1818C512.959 24.0483 512.802 23.0511 512.486 22.1903C512.171 21.3295 511.706 20.6562 511.093 20.1705C510.479 19.6847 509.725 19.4418 508.83 19.4418C507.944 19.4418 507.194 19.6761 506.58 20.1449C505.975 20.6136 505.51 21.2784 505.187 22.1392C504.863 23 504.701 24.0142 504.701 25.1818ZM525.44 23.6477V35H519.994V15.3636H525.185V18.8281H525.415C525.849 17.6861 526.578 16.7827 527.601 16.1179C528.623 15.4446 529.864 15.108 531.321 15.108C532.685 15.108 533.873 15.4062 534.888 16.0028C535.902 16.5994 536.69 17.4517 537.253 18.5597C537.815 19.6591 538.097 20.9716 538.097 22.4972V35H532.65V23.4688C532.659 22.267 532.352 21.3295 531.73 20.6562C531.108 19.9744 530.251 19.6335 529.16 19.6335C528.427 19.6335 527.78 19.7912 527.217 20.1065C526.663 20.4219 526.229 20.8821 525.913 21.4872C525.606 22.0838 525.449 22.804 525.44 23.6477ZM540.331 35V8.81818H545.777V18.6619H545.943C546.182 18.1335 546.527 17.5966 546.979 17.0511C547.439 16.4972 548.036 16.0369 548.769 15.6705C549.51 15.2955 550.43 15.108 551.53 15.108C552.962 15.108 554.283 15.483 555.493 16.233C556.703 16.9744 557.671 18.0952 558.395 19.5952C559.119 21.0866 559.482 22.9574 559.482 25.2074C559.482 27.3977 559.128 29.2472 558.421 30.7557C557.722 32.2557 556.767 33.3935 555.557 34.169C554.355 34.9361 553.009 35.3196 551.517 35.3196C550.46 35.3196 549.561 35.1449 548.82 34.7955C548.087 34.446 547.486 34.0071 547.017 33.4787C546.548 32.9418 546.19 32.4006 545.943 31.8551H545.7V35H540.331ZM545.662 25.1818C545.662 26.3494 545.824 27.3679 546.148 28.2372C546.472 29.1065 546.94 29.7841 547.554 30.2699C548.168 30.7472 548.913 30.9858 549.791 30.9858C550.678 30.9858 551.428 30.7429 552.041 30.2571C552.655 29.7628 553.119 29.081 553.435 28.2116C553.759 27.3338 553.921 26.3239 553.921 25.1818C553.921 24.0483 553.763 23.0511 553.448 22.1903C553.132 21.3295 552.668 20.6562 552.054 20.1705C551.44 19.6847 550.686 19.4418 549.791 19.4418C548.905 19.4418 548.155 19.6761 547.541 20.1449C546.936 20.6136 546.472 21.2784 546.148 22.1392C545.824 23 545.662 24.0142 545.662 25.1818Z" fill="#2F2F2F"/>
<path opacity="0.71" d="M671.759 8.81818H677.23V27.0739C677.23 28.7614 676.851 30.2273 676.092 31.4716C675.342 32.7159 674.298 33.6747 672.96 34.348C671.622 35.0213 670.067 35.358 668.294 35.358C666.717 35.358 665.286 35.081 663.999 34.527C662.72 33.9645 661.706 33.1122 660.956 31.9702C660.206 30.8196 659.835 29.375 659.844 27.6364H665.354C665.371 28.3267 665.511 28.919 665.776 29.4134C666.048 29.8991 666.419 30.2741 666.888 30.5384C667.365 30.794 667.928 30.9219 668.575 30.9219C669.257 30.9219 669.832 30.777 670.301 30.4872C670.778 30.1889 671.141 29.7543 671.388 29.1832C671.635 28.6122 671.759 27.9091 671.759 27.0739V8.81818ZM679.647 35V8.81818H689.976C691.962 8.81818 693.654 9.19744 695.052 9.95597C696.449 10.706 697.515 11.75 698.248 13.0881C698.989 14.4176 699.36 15.9517 699.36 17.6903C699.36 19.429 698.985 20.9631 698.235 22.2926C697.485 23.6222 696.398 24.6577 694.975 25.3991C693.56 26.1406 691.847 26.5114 689.836 26.5114H683.252V22.0753H688.941C690.006 22.0753 690.884 21.892 691.574 21.5256C692.273 21.1506 692.793 20.6349 693.134 19.9787C693.483 19.3139 693.658 18.5511 693.658 17.6903C693.658 16.821 693.483 16.0625 693.134 15.4148C692.793 14.7585 692.273 14.2514 691.574 13.8935C690.876 13.527 689.989 13.3438 688.915 13.3438H685.182V35H679.647ZM700.795 8.81818H707.622L714.832 26.4091H715.139L722.349 8.81818H729.176V35H723.807V17.9588H723.589L716.814 34.8722H713.158L706.382 17.8949H706.165V35H700.795V8.81818ZM740.347 35.3835C738.361 35.3835 736.644 34.9616 735.195 34.1179C733.754 33.2656 732.642 32.081 731.858 30.5639C731.074 29.0384 730.682 27.2699 730.682 25.2585C730.682 23.2301 731.074 21.4574 731.858 19.9403C732.642 18.4148 733.754 17.2301 735.195 16.3864C736.644 15.5341 738.361 15.108 740.347 15.108C742.332 15.108 744.046 15.5341 745.486 16.3864C746.935 17.2301 748.051 18.4148 748.835 19.9403C749.619 21.4574 750.011 23.2301 750.011 25.2585C750.011 27.2699 749.619 29.0384 748.835 30.5639C748.051 32.081 746.935 33.2656 745.486 34.1179C744.046 34.9616 742.332 35.3835 740.347 35.3835ZM740.372 31.1648C741.276 31.1648 742.03 30.9091 742.635 30.3977C743.24 29.8778 743.696 29.1705 744.003 28.2756C744.318 27.3807 744.476 26.3622 744.476 25.2202C744.476 24.0781 744.318 23.0597 744.003 22.1648C743.696 21.2699 743.24 20.5625 742.635 20.0426C742.03 19.5227 741.276 19.2628 740.372 19.2628C739.46 19.2628 738.693 19.5227 738.071 20.0426C737.457 20.5625 736.993 21.2699 736.678 22.1648C736.371 23.0597 736.217 24.0781 736.217 25.2202C736.217 26.3622 736.371 27.3807 736.678 28.2756C736.993 29.1705 737.457 29.8778 738.071 30.3977C738.693 30.9091 739.46 31.1648 740.372 31.1648ZM751.393 35V15.3636H756.673V18.7898H756.877C757.235 17.571 757.836 16.6506 758.68 16.0284C759.523 15.3977 760.495 15.0824 761.594 15.0824C761.867 15.0824 762.161 15.0994 762.476 15.1335C762.792 15.1676 763.069 15.2145 763.307 15.2741V20.1065C763.052 20.0298 762.698 19.9616 762.246 19.902C761.795 19.8423 761.381 19.8125 761.006 19.8125C760.205 19.8125 759.489 19.9872 758.859 20.3366C758.236 20.6776 757.742 21.1548 757.376 21.7685C757.018 22.3821 756.839 23.0895 756.839 23.8906V35H751.393ZM771.896 42.7727C770.131 42.7727 768.619 42.5298 767.357 42.044C766.104 41.5668 765.107 40.9148 764.366 40.0881C763.624 39.2614 763.143 38.3324 762.921 37.3011L767.958 36.6236C768.112 37.0156 768.354 37.3821 768.687 37.723C769.019 38.0639 769.458 38.3366 770.004 38.5412C770.558 38.7543 771.231 38.8608 772.024 38.8608C773.208 38.8608 774.184 38.571 774.951 37.9915C775.727 37.4205 776.114 36.4616 776.114 35.1151V31.5227H775.884C775.646 32.0682 775.288 32.5838 774.81 33.0696C774.333 33.5554 773.72 33.9517 772.97 34.2585C772.22 34.5653 771.325 34.7188 770.285 34.7188C768.81 34.7188 767.468 34.3778 766.258 33.696C765.056 33.0057 764.097 31.9531 763.381 30.5384C762.674 29.1151 762.32 27.3168 762.32 25.1435C762.32 22.919 762.683 21.0611 763.407 19.5696C764.131 18.0781 765.095 16.9616 766.296 16.2202C767.506 15.4787 768.832 15.108 770.272 15.108C771.372 15.108 772.292 15.2955 773.033 15.6705C773.775 16.0369 774.372 16.4972 774.823 17.0511C775.283 17.5966 775.637 18.1335 775.884 18.6619H776.089V15.3636H781.497V35.1918C781.497 36.8622 781.087 38.2599 780.269 39.3849C779.451 40.5099 778.318 41.3537 776.869 41.9162C775.428 42.4872 773.771 42.7727 771.896 42.7727ZM772.011 30.6278C772.889 30.6278 773.63 30.4105 774.235 29.9759C774.849 29.5327 775.318 28.902 775.641 28.0838C775.974 27.2571 776.14 26.2685 776.14 25.1179C776.14 23.9673 775.978 22.9702 775.654 22.1264C775.33 21.2741 774.862 20.6136 774.248 20.1449C773.634 19.6761 772.889 19.4418 772.011 19.4418C771.116 19.4418 770.362 19.6847 769.748 20.1705C769.134 20.6477 768.67 21.3125 768.354 22.1648C768.039 23.017 767.881 24.0014 767.881 25.1179C767.881 26.2514 768.039 27.2315 768.354 28.0582C768.678 28.8764 769.143 29.5114 769.748 29.9631C770.362 30.4062 771.116 30.6278 772.011 30.6278ZM789.27 35.3707C788.017 35.3707 786.9 35.1534 785.92 34.7188C784.94 34.2756 784.165 33.6236 783.594 32.7628C783.031 31.8935 782.75 30.8111 782.75 29.5156C782.75 28.4247 782.95 27.5085 783.351 26.767C783.751 26.0256 784.297 25.429 784.987 24.9773C785.677 24.5256 786.462 24.1847 787.339 23.9545C788.226 23.7244 789.155 23.5625 790.126 23.4688C791.268 23.3494 792.189 23.2386 792.888 23.1364C793.587 23.0256 794.094 22.8636 794.409 22.6506C794.724 22.4375 794.882 22.1222 794.882 21.7045V21.6278C794.882 20.8182 794.626 20.1918 794.115 19.7486C793.612 19.3054 792.896 19.0838 791.967 19.0838C790.987 19.0838 790.207 19.3011 789.628 19.7358C789.048 20.1619 788.665 20.6989 788.477 21.3466L783.44 20.9375C783.696 19.7443 784.199 18.7131 784.949 17.8438C785.699 16.9659 786.666 16.2926 787.851 15.8239C789.044 15.3466 790.425 15.108 791.993 15.108C793.084 15.108 794.128 15.2358 795.125 15.4915C796.131 15.7472 797.021 16.1435 797.797 16.6804C798.581 17.2173 799.199 17.9077 799.65 18.7514C800.102 19.5866 800.328 20.5881 800.328 21.7557V35H795.163V32.277H795.01C794.694 32.8906 794.273 33.4318 793.744 33.9006C793.216 34.3608 792.581 34.723 791.839 34.9872C791.098 35.2429 790.241 35.3707 789.27 35.3707ZM790.829 31.6122C791.631 31.6122 792.338 31.4545 792.952 31.1392C793.565 30.8153 794.047 30.3807 794.396 29.8352C794.746 29.2898 794.92 28.6719 794.92 27.9815V25.8977C794.75 26.0085 794.515 26.1108 794.217 26.2045C793.927 26.2898 793.599 26.3707 793.233 26.4474C792.866 26.5156 792.5 26.5795 792.133 26.6392C791.767 26.6903 791.435 26.7372 791.136 26.7798C790.497 26.8736 789.939 27.0227 789.462 27.2273C788.984 27.4318 788.614 27.7088 788.349 28.0582C788.085 28.3991 787.953 28.8253 787.953 29.3366C787.953 30.0781 788.221 30.6449 788.758 31.0369C789.304 31.4205 789.994 31.6122 790.829 31.6122ZM807.839 23.6477V35H802.393V15.3636H807.583V18.8281H807.814C808.248 17.6861 808.977 16.7827 810 16.1179C811.022 15.4446 812.262 15.108 813.72 15.108C815.083 15.108 816.272 15.4062 817.287 16.0028C818.301 16.5994 819.089 17.4517 819.652 18.5597C820.214 19.6591 820.495 20.9716 820.495 22.4972V35H815.049V23.4688C815.058 22.267 814.751 21.3295 814.129 20.6562C813.507 19.9744 812.65 19.6335 811.559 19.6335C810.826 19.6335 810.179 19.7912 809.616 20.1065C809.062 20.4219 808.628 20.8821 808.312 21.4872C808.005 22.0838 807.848 22.804 807.839 23.6477Z" fill="#2F2F2F"/>
<path opacity="0.71" d="M932.788 35H926.857L935.895 8.81818H943.028L952.054 35H946.122L939.564 14.8011H939.359L932.788 35ZM932.418 24.7088H946.429V29.0298H932.418V24.7088ZM952.943 35V15.3636H958.133V18.8281H958.363C958.773 17.6776 959.454 16.7699 960.409 16.1051C961.363 15.4403 962.505 15.108 963.835 15.108C965.182 15.108 966.328 15.4446 967.274 16.1179C968.22 16.7827 968.851 17.6861 969.166 18.8281H969.371C969.771 17.7031 970.496 16.804 971.544 16.1307C972.601 15.4489 973.849 15.108 975.29 15.108C977.122 15.108 978.609 15.6918 979.751 16.8594C980.902 18.0185 981.477 19.6634 981.477 21.794V35H976.044V22.8679C976.044 21.777 975.754 20.9588 975.175 20.4134C974.595 19.8679 973.871 19.5952 973.001 19.5952C972.013 19.5952 971.241 19.9105 970.687 20.5412C970.133 21.1634 969.856 21.9858 969.856 23.0085V35H964.577V22.7528C964.577 21.7898 964.3 21.0227 963.746 20.4517C963.2 19.8807 962.48 19.5952 961.585 19.5952C960.98 19.5952 960.434 19.7486 959.949 20.0554C959.471 20.3537 959.092 20.7756 958.811 21.321C958.53 21.858 958.389 22.4886 958.389 23.2131V35H952.943ZM992.568 35.3835C990.548 35.3835 988.809 34.9744 987.352 34.1562C985.903 33.3295 984.787 32.1619 984.002 30.6534C983.218 29.1364 982.826 27.3423 982.826 25.2713C982.826 23.2514 983.218 21.4787 984.002 19.9531C984.787 18.4276 985.89 17.2386 987.314 16.3864C988.745 15.5341 990.424 15.108 992.35 15.108C993.646 15.108 994.852 15.3168 995.968 15.7344C997.093 16.1435 998.073 16.7614 998.909 17.5881C999.752 18.4148 1000.41 19.4545 1000.88 20.7074C1001.35 21.9517 1001.58 23.4091 1001.58 25.0795V26.5753H985V23.2003H996.454C996.454 22.4162 996.284 21.7216 995.943 21.1165C995.602 20.5114 995.129 20.0384 994.524 19.6974C993.927 19.348 993.233 19.1733 992.44 19.1733C991.613 19.1733 990.88 19.3651 990.241 19.7486C989.61 20.1236 989.116 20.6307 988.758 21.2699C988.4 21.9006 988.217 22.6037 988.208 23.3793V26.5881C988.208 27.5597 988.387 28.3991 988.745 29.1065C989.112 29.8139 989.627 30.3594 990.292 30.7429C990.957 31.1264 991.745 31.3182 992.657 31.3182C993.262 31.3182 993.816 31.233 994.319 31.0625C994.822 30.892 995.252 30.6364 995.61 30.2955C995.968 29.9545 996.241 29.5369 996.429 29.0426L1001.47 29.375C1001.21 30.5852 1000.69 31.642 999.893 32.5455C999.109 33.4403 998.095 34.1392 996.85 34.642C995.615 35.1364 994.187 35.3835 992.568 35.3835ZM1007.17 15.3636L1010.78 22.2287L1014.47 15.3636H1020.06L1014.37 25.1818L1020.21 35H1014.65L1010.78 28.2116L1006.97 35H1001.34L1007.17 25.1818L1001.55 15.3636H1007.17Z" fill="#2F2F2F"/>
<path opacity="0.71" d="M1143.34 21.9091C1143.34 24.7642 1142.79 27.1932 1141.71 29.196C1140.64 31.1989 1139.17 32.7287 1137.31 33.7855C1135.46 34.8338 1133.38 35.358 1131.08 35.358C1128.75 35.358 1126.66 34.8295 1124.81 33.7727C1122.96 32.7159 1121.5 31.1861 1120.43 29.1832C1119.35 27.1804 1118.82 24.7557 1118.82 21.9091C1118.82 19.054 1119.35 16.625 1120.43 14.6222C1121.5 12.6193 1122.96 11.0937 1124.81 10.0455C1126.66 8.98864 1128.75 8.46023 1131.08 8.46023C1133.38 8.46023 1135.46 8.98864 1137.31 10.0455C1139.17 11.0937 1140.64 12.6193 1141.71 14.6222C1142.79 16.625 1143.34 19.054 1143.34 21.9091ZM1137.72 21.9091C1137.72 20.0597 1137.45 18.5 1136.89 17.2301C1136.35 15.9602 1135.58 14.9972 1134.58 14.3409C1133.58 13.6847 1132.41 13.3565 1131.08 13.3565C1129.74 13.3565 1128.57 13.6847 1127.57 14.3409C1126.58 14.9972 1125.8 15.9602 1125.25 17.2301C1124.7 18.5 1124.43 20.0597 1124.43 21.9091C1124.43 23.7585 1124.7 25.3182 1125.25 26.5881C1125.8 27.858 1126.58 28.821 1127.57 29.4773C1128.57 30.1335 1129.74 30.4616 1131.08 30.4616C1132.41 30.4616 1133.58 30.1335 1134.58 29.4773C1135.58 28.821 1136.35 27.858 1136.89 26.5881C1137.45 25.3182 1137.72 23.7585 1137.72 21.9091ZM1145.17 35V15.3636H1150.45V18.7898H1150.66C1151.02 17.571 1151.62 16.6506 1152.46 16.0284C1153.3 15.3977 1154.28 15.0824 1155.38 15.0824C1155.65 15.0824 1155.94 15.0994 1156.26 15.1335C1156.57 15.1676 1156.85 15.2145 1157.09 15.2741V20.1065C1156.83 20.0298 1156.48 19.9616 1156.03 19.902C1155.58 19.8423 1155.16 19.8125 1154.79 19.8125C1153.99 19.8125 1153.27 19.9872 1152.64 20.3366C1152.02 20.6776 1151.52 21.1548 1151.16 21.7685C1150.8 22.3821 1150.62 23.0895 1150.62 23.8906V35H1145.17ZM1162.78 35.3707C1161.53 35.3707 1160.41 35.1534 1159.43 34.7188C1158.45 34.2756 1157.68 33.6236 1157.1 32.7628C1156.54 31.8935 1156.26 30.8111 1156.26 29.5156C1156.26 28.4247 1156.46 27.5085 1156.86 26.767C1157.26 26.0256 1157.81 25.429 1158.5 24.9773C1159.19 24.5256 1159.97 24.1847 1160.85 23.9545C1161.74 23.7244 1162.67 23.5625 1163.64 23.4688C1164.78 23.3494 1165.7 23.2386 1166.4 23.1364C1167.1 23.0256 1167.6 22.8636 1167.92 22.6506C1168.24 22.4375 1168.39 22.1222 1168.39 21.7045V21.6278C1168.39 20.8182 1168.14 20.1918 1167.63 19.7486C1167.12 19.3054 1166.41 19.0838 1165.48 19.0838C1164.5 19.0838 1163.72 19.3011 1163.14 19.7358C1162.56 20.1619 1162.18 20.6989 1161.99 21.3466L1156.95 20.9375C1157.21 19.7443 1157.71 18.7131 1158.46 17.8438C1159.21 16.9659 1160.18 16.2926 1161.36 15.8239C1162.56 15.3466 1163.94 15.108 1165.5 15.108C1166.59 15.108 1167.64 15.2358 1168.64 15.4915C1169.64 15.7472 1170.53 16.1435 1171.31 16.6804C1172.09 17.2173 1172.71 17.9077 1173.16 18.7514C1173.61 19.5866 1173.84 20.5881 1173.84 21.7557V35H1168.67V32.277H1168.52C1168.21 32.8906 1167.78 33.4318 1167.26 33.9006C1166.73 34.3608 1166.09 34.723 1165.35 34.9872C1164.61 35.2429 1163.75 35.3707 1162.78 35.3707ZM1164.34 31.6122C1165.14 31.6122 1165.85 31.4545 1166.46 31.1392C1167.08 30.8153 1167.56 30.3807 1167.91 29.8352C1168.26 29.2898 1168.43 28.6719 1168.43 27.9815V25.8977C1168.26 26.0085 1168.03 26.1108 1167.73 26.2045C1167.44 26.2898 1167.11 26.3707 1166.74 26.4474C1166.38 26.5156 1166.01 26.5795 1165.64 26.6392C1165.28 26.6903 1164.95 26.7372 1164.65 26.7798C1164.01 26.8736 1163.45 27.0227 1162.97 27.2273C1162.5 27.4318 1162.12 27.7088 1161.86 28.0582C1161.6 28.3991 1161.46 28.8253 1161.46 29.3366C1161.46 30.0781 1161.73 30.6449 1162.27 31.0369C1162.81 31.4205 1163.51 31.6122 1164.34 31.6122ZM1184.78 35.3835C1182.77 35.3835 1181.03 34.9574 1179.59 34.1051C1178.15 33.2443 1177.04 32.0511 1176.26 30.5256C1175.5 29 1175.11 27.2443 1175.11 25.2585C1175.11 23.2472 1175.5 21.483 1176.27 19.9659C1177.06 18.4403 1178.17 17.2514 1179.61 16.3991C1181.05 15.5384 1182.77 15.108 1184.75 15.108C1186.46 15.108 1187.96 15.419 1189.25 16.0412C1190.54 16.6634 1191.56 17.5369 1192.31 18.6619C1193.06 19.7869 1193.47 21.108 1193.55 22.625H1188.41C1188.26 21.6449 1187.88 20.8565 1187.26 20.2599C1186.64 19.6548 1185.84 19.3523 1184.84 19.3523C1184 19.3523 1183.26 19.5824 1182.63 20.0426C1182.01 20.4943 1181.52 21.1548 1181.17 22.0241C1180.82 22.8935 1180.65 23.946 1180.65 25.1818C1180.65 26.4347 1180.82 27.5 1181.16 28.3778C1181.51 29.2557 1182 29.9247 1182.63 30.3849C1183.26 30.8452 1184 31.0753 1184.84 31.0753C1185.46 31.0753 1186.02 30.9474 1186.52 30.6918C1187.02 30.4361 1187.43 30.0653 1187.76 29.5795C1188.09 29.0852 1188.3 28.4929 1188.41 27.8026H1193.55C1193.46 29.3026 1193.05 30.6236 1192.32 31.7656C1191.59 32.8991 1190.59 33.7855 1189.31 34.4247C1188.04 35.0639 1186.52 35.3835 1184.78 35.3835ZM1200.32 8.81818V35H1194.87V8.81818H1200.32ZM1211.47 35.3835C1209.45 35.3835 1207.71 34.9744 1206.25 34.1562C1204.81 33.3295 1203.69 32.1619 1202.91 30.6534C1202.12 29.1364 1201.73 27.3423 1201.73 25.2713C1201.73 23.2514 1202.12 21.4787 1202.91 19.9531C1203.69 18.4276 1204.79 17.2386 1206.22 16.3864C1207.65 15.5341 1209.33 15.108 1211.25 15.108C1212.55 15.108 1213.75 15.3168 1214.87 15.7344C1216 16.1435 1216.98 16.7614 1217.81 17.5881C1218.66 18.4148 1219.31 19.4545 1219.78 20.7074C1220.25 21.9517 1220.48 23.4091 1220.48 25.0795V26.5753H1203.9V23.2003H1215.36C1215.36 22.4162 1215.19 21.7216 1214.85 21.1165C1214.5 20.5114 1214.03 20.0384 1213.43 19.6974C1212.83 19.348 1212.14 19.1733 1211.34 19.1733C1210.52 19.1733 1209.78 19.3651 1209.14 19.7486C1208.51 20.1236 1208.02 20.6307 1207.66 21.2699C1207.3 21.9006 1207.12 22.6037 1207.11 23.3793V26.5881C1207.11 27.5597 1207.29 28.3991 1207.65 29.1065C1208.01 29.8139 1208.53 30.3594 1209.2 30.7429C1209.86 31.1264 1210.65 31.3182 1211.56 31.3182C1212.17 31.3182 1212.72 31.233 1213.22 31.0625C1213.72 30.892 1214.16 30.6364 1214.51 30.2955C1214.87 29.9545 1215.14 29.5369 1215.33 29.0426L1220.37 29.375C1220.11 30.5852 1219.59 31.642 1218.8 32.5455C1218.01 33.4403 1217 34.1392 1215.75 34.642C1214.52 35.1364 1213.09 35.3835 1211.47 35.3835Z" fill="#2F2F2F"/>
<path opacity="0.71" d="M1325.79 35H1319.86L1328.89 8.81818H1336.03L1345.05 35H1339.12L1332.56 14.8011H1332.36L1325.79 35ZM1325.42 24.7088H1339.43V29.0298H1325.42V24.7088ZM1346.05 35V15.3636H1351.49V35H1346.05ZM1348.78 12.8324C1347.97 12.8324 1347.28 12.5639 1346.7 12.027C1346.13 11.4815 1345.84 10.8295 1345.84 10.071C1345.84 9.32102 1346.13 8.67756 1346.7 8.14062C1347.28 7.59517 1347.97 7.32244 1348.78 7.32244C1349.59 7.32244 1350.28 7.59517 1350.86 8.14062C1351.43 8.67756 1351.72 9.32102 1351.72 10.071C1351.72 10.8295 1351.43 11.4815 1350.86 12.027C1350.28 12.5639 1349.59 12.8324 1348.78 12.8324ZM1353.7 35V15.3636H1358.98V18.7898H1359.18C1359.54 17.571 1360.14 16.6506 1360.98 16.0284C1361.83 15.3977 1362.8 15.0824 1363.9 15.0824C1364.17 15.0824 1364.47 15.0994 1364.78 15.1335C1365.1 15.1676 1365.37 15.2145 1365.61 15.2741V20.1065C1365.36 20.0298 1365 19.9616 1364.55 19.902C1364.1 19.8423 1363.69 19.8125 1363.31 19.8125C1362.51 19.8125 1361.79 19.9872 1361.16 20.3366C1360.54 20.6776 1360.05 21.1548 1359.68 21.7685C1359.32 22.3821 1359.14 23.0895 1359.14 23.8906V35H1353.7ZM1371.91 8.81818V35H1366.37V8.81818H1371.91ZM1379.64 23.6477V35H1374.2V15.3636H1379.39V18.8281H1379.62C1380.05 17.6861 1380.78 16.7827 1381.8 16.1179C1382.83 15.4446 1384.07 15.108 1385.52 15.108C1386.89 15.108 1388.08 15.4062 1389.09 16.0028C1390.11 16.5994 1390.89 17.4517 1391.46 18.5597C1392.02 19.6591 1392.3 20.9716 1392.3 22.4972V35H1386.85V23.4688C1386.86 22.267 1386.56 21.3295 1385.93 20.6562C1385.31 19.9744 1384.45 19.6335 1383.36 19.6335C1382.63 19.6335 1381.98 19.7912 1381.42 20.1065C1380.87 20.4219 1380.43 20.8821 1380.12 21.4872C1379.81 22.0838 1379.65 22.804 1379.64 23.6477ZM1401.67 35.3196C1400.18 35.3196 1398.83 34.9361 1397.62 34.169C1396.41 33.3935 1395.46 32.2557 1394.75 30.7557C1394.05 29.2472 1393.7 27.3977 1393.7 25.2074C1393.7 22.9574 1394.07 21.0866 1394.79 19.5952C1395.51 18.0952 1396.48 16.9744 1397.68 16.233C1398.89 15.483 1400.21 15.108 1401.65 15.108C1402.75 15.108 1403.67 15.2955 1404.4 15.6705C1405.14 16.0369 1405.74 16.4972 1406.19 17.0511C1406.65 17.5966 1407 18.1335 1407.24 18.6619H1407.41V8.81818H1412.84V35H1407.47V31.8551H1407.24C1406.99 32.4006 1406.62 32.9418 1406.15 33.4787C1405.69 34.0071 1405.09 34.446 1404.35 34.7955C1403.62 35.1449 1402.72 35.3196 1401.67 35.3196ZM1403.39 30.9858C1404.27 30.9858 1405.01 30.7472 1405.62 30.2699C1406.23 29.7841 1406.7 29.1065 1407.02 28.2372C1407.36 27.3679 1407.52 26.3494 1407.52 25.1818C1407.52 24.0142 1407.36 23 1407.04 22.1392C1406.71 21.2784 1406.24 20.6136 1405.63 20.1449C1405.02 19.6761 1404.27 19.4418 1403.39 19.4418C1402.5 19.4418 1401.74 19.6847 1401.13 20.1705C1400.52 20.6562 1400.05 21.3295 1399.74 22.1903C1399.42 23.0511 1399.26 24.0483 1399.26 25.1818C1399.26 26.3239 1399.42 27.3338 1399.74 28.2116C1400.06 29.081 1400.53 29.7628 1401.13 30.2571C1401.74 30.7429 1402.5 30.9858 1403.39 30.9858ZM1415.16 35V15.3636H1420.6V35H1415.16ZM1417.89 12.8324C1417.08 12.8324 1416.39 12.5639 1415.81 12.027C1415.24 11.4815 1414.95 10.8295 1414.95 10.071C1414.95 9.32102 1415.24 8.67756 1415.81 8.14062C1416.39 7.59517 1417.08 7.32244 1417.89 7.32244C1418.7 7.32244 1419.39 7.59517 1419.97 8.14062C1420.54 8.67756 1420.83 9.32102 1420.83 10.071C1420.83 10.8295 1420.54 11.4815 1419.97 12.027C1419.39 12.5639 1418.7 12.8324 1417.89 12.8324ZM1428.41 35.3707C1427.15 35.3707 1426.04 35.1534 1425.06 34.7188C1424.08 34.2756 1423.3 33.6236 1422.73 32.7628C1422.17 31.8935 1421.89 30.8111 1421.89 29.5156C1421.89 28.4247 1422.09 27.5085 1422.49 26.767C1422.89 26.0256 1423.43 25.429 1424.12 24.9773C1424.81 24.5256 1425.6 24.1847 1426.48 23.9545C1427.36 23.7244 1428.29 23.5625 1429.26 23.4688C1430.41 23.3494 1431.33 23.2386 1432.02 23.1364C1432.72 23.0256 1433.23 22.8636 1433.55 22.6506C1433.86 22.4375 1434.02 22.1222 1434.02 21.7045V21.6278C1434.02 20.8182 1433.76 20.1918 1433.25 19.7486C1432.75 19.3054 1432.03 19.0838 1431.1 19.0838C1430.12 19.0838 1429.34 19.3011 1428.76 19.7358C1428.19 20.1619 1427.8 20.6989 1427.61 21.3466L1422.58 20.9375C1422.83 19.7443 1423.34 18.7131 1424.09 17.8438C1424.84 16.9659 1425.8 16.2926 1426.99 15.8239C1428.18 15.3466 1429.56 15.108 1431.13 15.108C1432.22 15.108 1433.26 15.2358 1434.26 15.4915C1435.27 15.7472 1436.16 16.1435 1436.93 16.6804C1437.72 17.2173 1438.34 17.9077 1438.79 18.7514C1439.24 19.5866 1439.46 20.5881 1439.46 21.7557V35H1434.3V32.277H1434.15C1433.83 32.8906 1433.41 33.4318 1432.88 33.9006C1432.35 34.3608 1431.72 34.723 1430.98 34.9872C1430.23 35.2429 1429.38 35.3707 1428.41 35.3707ZM1429.97 31.6122C1430.77 31.6122 1431.47 31.4545 1432.09 31.1392C1432.7 30.8153 1433.18 30.3807 1433.53 29.8352C1433.88 29.2898 1434.06 28.6719 1434.06 27.9815V25.8977C1433.89 26.0085 1433.65 26.1108 1433.35 26.2045C1433.06 26.2898 1432.74 26.3707 1432.37 26.4474C1432 26.5156 1431.64 26.5795 1431.27 26.6392C1430.9 26.6903 1430.57 26.7372 1430.27 26.7798C1429.63 26.8736 1429.08 27.0227 1428.6 27.2273C1428.12 27.4318 1427.75 27.7088 1427.49 28.0582C1427.22 28.3991 1427.09 28.8253 1427.09 29.3366C1427.09 30.0781 1427.36 30.6449 1427.9 31.0369C1428.44 31.4205 1429.13 31.6122 1429.97 31.6122Z" fill="#2F2F2F"/>
</svg>
